<svg width="217" height="42" overflow="visible" style="display: block;" viewBox="0 0 217 42" fill="none" xmlns="http://www.w3.org/2000/svg">
<g id="logo" clip-path="url(#clip0_0_33)">
<path id="Vector" d="M72.8751 6.35398H67.2195C66.9704 6.35398 66.7685 6.54416 66.7685 6.77876V41.5752C66.7685 41.8098 66.9704 42 67.2195 42H72.8751C73.1241 42 73.326 41.8098 73.326 41.5752V6.77876C73.326 6.54416 73.1241 6.35398 72.8751 6.35398Z" fill="var(--fill-0, white)"/>
<path id="Vector_2" d="M216.549 0H211.344C211.095 0 210.893 0.19018 210.893 0.424779V41.5752C210.893 41.8098 211.095 42 211.344 42H216.549C216.798 42 217 41.8098 217 41.5752V0.424779C217 0.19018 216.798 0 216.549 0Z" fill="var(--fill-0, white)"/>
<path id="Vector_3" d="M24.8585 3.9469C27.7709 6.38053 29.2271 9.77876 29.2271 14.1504C29.2271 16.6637 28.6916 19.0177 27.6206 21.2035C26.5496 23.3894 24.8209 25.1593 22.4347 26.5221C20.0484 27.885 17.0421 28.5664 13.4063 28.5664H6.83938C6.58572 28.5664 6.38843 28.7611 6.38843 28.9911V41.5664C6.38843 41.8053 6.18175 41.9912 5.93748 41.9912H0.450948C0.19729 41.9912 0 41.7965 0 41.5664V0.725664C0 0.486726 0.206685 0.300885 0.450948 0.300885H12.7393C17.9064 0.300885 21.9461 1.52212 24.8585 3.95575V3.9469ZM18.9492 21.3982C20.3678 20.4956 21.3919 19.3894 22.0025 18.0885C22.6132 16.7876 22.9232 15.5221 22.9232 14.2832C22.9232 12.1416 22.181 10.2301 20.6872 8.55752C19.1935 6.88496 16.8824 6.0531 13.7257 6.0531H6.82998C6.57633 6.0531 6.37904 6.24779 6.37904 6.47788V22.3186C6.37904 22.5575 6.58572 22.7434 6.82998 22.7434H13.3969C15.6704 22.7434 17.5212 22.292 18.9492 21.3805V21.3982Z" fill="var(--fill-0, white)"/>
<path id="Vector_4" d="M197.102 4.88496C197.844 4.26549 198.699 3.95575 199.667 3.95575C200.634 3.95575 201.47 4.26549 202.194 4.88496C202.917 5.50442 203.274 6.26549 203.274 7.17699C203.274 8.0885 202.917 8.84956 202.194 9.46903C201.47 10.0885 200.625 10.3982 199.667 10.3982C198.708 10.3982 197.854 10.0885 197.102 9.46903C196.36 8.84956 195.984 8.0885 195.984 7.17699C195.984 6.26549 196.36 5.50442 197.102 4.88496ZM202.551 16.823V41.5752C202.551 41.8142 202.344 42 202.1 42H196.905C196.651 42 196.454 41.8053 196.454 41.5752V16.823C196.454 16.5841 196.66 16.3982 196.905 16.3982H202.1C202.354 16.3982 202.551 16.5929 202.551 16.823Z" fill="var(--fill-0, white)"/>
<path id="Vector_5" d="M46.1752 19.5398C51.1169 19.5398 55.1378 23.3274 55.1378 27.9823C55.1378 32.6372 51.1169 36.4248 46.1752 36.4248C41.2336 36.4248 37.2126 32.6372 37.2126 27.9823C37.2126 23.3274 41.2336 19.5398 46.1752 19.5398ZM46.1752 13.9735C37.9548 13.9735 31.2939 20.2478 31.2939 27.9912C31.2939 35.7345 37.9548 42.0089 46.1752 42.0089C54.3956 42.0089 61.0565 35.7345 61.0565 27.9912C61.0565 20.2478 54.3956 13.9735 46.1752 13.9735Z" fill="var(--fill-0, white)"/>
<path id="Vector_6" d="M169.519 0.19469C165.695 -0.292035 162.05 0.150443 158.762 1.30088C155.718 2.36283 152.524 3.0177 149.283 3.0177C148.23 3.0177 147.375 3.82301 147.375 4.81416C147.375 7.87611 146.68 10.8761 145.553 13.7434C144.332 16.8407 143.862 20.2743 144.379 23.8761C145.722 33.2124 153.764 40.7168 163.694 41.8407C178.181 43.4867 190.338 32.0354 188.59 18.3894C187.397 9.0354 179.43 1.46018 169.519 0.19469ZM169.256 36.2655C158.029 38.0177 148.409 28.9558 150.26 18.3717C151.387 11.9646 156.874 6.79646 163.675 5.73451C174.902 3.9823 184.522 13.0442 182.672 23.6283C181.544 30.0354 176.058 35.2035 169.256 36.2655Z" fill="var(--fill-0, white)"/>
<g id="Group">
<g id="Vector_7">
</g>
<g id="Vector_8">
</g>
<path id="Vector_9" d="M129.441 29.885C129.488 29.292 129.516 28.7788 129.516 28.4248C129.516 25.6991 128.896 23.2655 127.684 21.1858C126.463 19.1062 124.753 17.4779 122.583 16.3274C120.413 15.177 117.914 14.6018 115.161 14.6018C112.408 14.6018 109.834 15.1947 107.608 16.354C105.39 17.5133 103.624 19.1593 102.375 21.2389C101.125 23.3186 100.486 25.6814 100.486 28.2743C100.486 30.8673 101.135 33.2832 102.431 35.3628C103.718 37.4425 105.569 39.0796 107.936 40.2478C110.304 41.4071 113.075 42 116.185 42C118.628 42 120.845 41.6283 122.789 40.8938C124.574 40.2212 126.087 39.2478 127.299 37.9823C127.459 37.823 127.449 37.5752 127.299 37.4071L124.405 34.2743C124.236 34.0885 123.945 34.0796 123.757 34.2478C121.775 35.9558 119.285 36.823 116.345 36.823C113.874 36.823 111.779 36.2301 110.116 35.0708C108.444 33.9027 107.401 32.3009 107.006 30.3097C107.006 30.2832 107.006 30.2566 107.025 30.2389C107.044 30.2212 107.072 30.2035 107.091 30.2035H129.093C129.347 30.2035 129.422 30.1504 129.45 29.885H129.441ZM123.306 26.1681C123.306 26.1681 123.259 26.1947 123.24 26.1947H107.025C107.025 26.1947 106.969 26.1858 106.959 26.1681C106.95 26.1504 106.931 26.1239 106.94 26.0973C107.26 24.1062 108.181 22.4867 109.674 21.2832C111.168 20.0796 113.009 19.469 115.161 19.469C117.312 19.469 119.201 20.0885 120.676 21.3009C122.151 22.5221 123.043 24.1327 123.325 26.0885C123.325 26.115 123.325 26.1416 123.306 26.1593V26.1681Z" fill="var(--fill-0, white)"/>
</g>
<path id="Vector_10" d="M84.581 23.6903L99.3401 6.97345C99.5562 6.72566 99.3683 6.34513 99.0301 6.34513H92.3974C92.1531 6.34513 91.9277 6.44248 91.7773 6.61947L76.7082 23.6814C76.4545 23.9646 76.4545 24.3717 76.7082 24.6549L91.7773 41.7168C91.9277 41.8938 92.1625 41.9912 92.3974 41.9912H99.0301C99.3683 41.9912 99.5562 41.6195 99.3401 41.3628L84.581 24.646C84.3273 24.3628 84.3273 23.9558 84.581 23.6726V23.6903Z" fill="var(--fill-0, white)"/>
</g>
<defs>
<clipPath id="clip0_0_33">
<rect width="217" height="42" fill="white"/>
</clipPath>
</defs>
</svg>
